<?xml version="1.0" standalone="no"?><!DOCTYPE svg PUBLIC "-//W3C//DTD SVG 1.1//EN" "http://www.w3.org/Graphics/SVG/1.1/DTD/svg11.dtd"><svg t="1723218471424" class="icon" viewBox="0 0 1024 1024" version="1.1" xmlns="http://www.w3.org/2000/svg" p-id="4280" xmlns:xlink="http://www.w3.org/1999/xlink" width="200" height="200"><path d="M102.684444 618.040889c-0.170667-106.951111-0.284444-213.902222-0.284444-320.853333 0-14.051556 7.395556-25.031111 19.740444-32.085334 43.804444-25.144889 87.608889-50.289778 131.754667-75.036444 68.494222-38.570667 137.102222-76.913778 205.767111-115.427556 7.111111-3.868444 14.051556-7.907556 20.707556-12.515555 18.773333-12.572444 37.603556-15.075556 57.912889-3.299556 26.339556 15.416889 52.906667 30.435556 79.416889 45.454222 84.764444 48.014222 169.756444 95.971556 254.577777 143.928889 9.500444 5.347556 19.171556 10.524444 28.501334 16.042667 13.653333 8.078222 20.707556 19.911111 20.707555 35.555555 0 139.377778 0.284444 278.641778-0.113778 417.962667a38.570667 38.570667 0 0 1-21.048888 34.872889c-33.450667 19.057778-67.868444 36.693333-100.693334 56.547556-47.047111 28.444444-96.256 52.906667-143.189333 81.692444-27.989333 17.066667-57.344 32.085333-85.845333 48.014222-12.629333 7.111111-25.088 14.336-37.546667 21.674667a37.944889 37.944889 0 0 1-40.448 0.739555l-163.100445-92.16c-59.619556-33.564444-119.182222-67.072-178.631111-100.693333-10.752-6.087111-21.390222-12.060444-31.744-18.773333a35.271111 35.271111 0 0 1-16.440889-30.776889c-0.170667-32.768 0.113778-65.592889 0.284445-98.360889 1.536-0.568889 1.536-1.536-0.284445-2.503111z m343.381334-212.650667c2.104889-1.706667 4.266667-3.470222 6.542222-4.835555a250601.813333 250601.813333 0 0 1 199.281778-112.071111c2.673778-1.592889 6.257778-1.592889 6.371555-5.859556 0.113778-4.551111-3.982222-4.494222-6.542222-5.859556-39.139556-22.186667-78.563556-44.145778-117.589333-66.787555-16.156444-9.443556-31.630222-8.078222-46.648889 0.568889-44.259556 24.974222-88.064 50.517333-132.209778 75.832889-30.72 17.635556-61.838222 34.986667-92.728889 52.451555-17.749333 10.012444-26.510222 23.893333-26.225778 45.056 0.853333 84.423111 0.568889 168.903111 0.113778 253.326222-0.113778 19.057778 8.931556 31.687111 24.405334 40.732445 30.208 17.635556 60.871111 34.986667 91.591111 51.768889 10.524444 5.688889 20.309333 13.198222 34.474666 17.408V494.705778c6.257778 18.488889 17.92 32.085333 35.328 42.097778 26.794667 15.246222 60.871111 11.776 83.114667-9.898667 25.998222-25.088 27.648-59.278222 12.344889-84.992-15.758222-26.794667-41.984-35.384889-71.623111-36.522667z m79.416889 405.162667c13.767111-3.584 25.031111-13.198222 37.489777-20.138667 39.424-21.902222 78.279111-44.942222 117.987556-66.56 25.941333-14.108444 50.915556-29.809778 77.710222-42.609778 16.156444-7.623111 28.501333-21.219556 28.501334-40.96 0.170667-87.608889 0.284444-175.160889 0.170666-262.826666 0-10.524444-4.949333-13.198222-13.368889-6.656-25.486222 19.569778-55.182222 32.483556-82.944 48.355555-52.508444 29.980444-105.130667 59.733333-157.752889 89.6-8.192 4.551111-11.320889 9.841778-11.207111 19.285334 0.284444 90.680889 0.170667 181.532444 0.170667 272.270222-0.284444 3.299556-1.422222 7.224889 3.242667 10.24z" fill="#066AF3" p-id="4281"></path><path d="M102.684444 618.040889c7.566222 1.934222 7.566222 3.811556 0 5.688889v-5.688889z" fill="#4372E0" p-id="4282"></path><path d="M386.901333 494.592c-5.233778-41.813333 13.368889-69.916444 59.164445-89.201778 29.809778 1.137778 55.864889 9.728 71.68 36.408889 15.132444 25.827556 13.596444 59.847111-12.401778 84.992-22.414222 21.674667-56.32 25.144889-83.057778 9.841778a73.784889 73.784889 0 0 1-35.384889-42.097778z" fill="#002A9A" p-id="4283"></path></svg>